<svg xmlns="http://www.w3.org/2000/svg" width="169.818" height="159.411" viewBox="0 0 169.818 159.411">
  <g id="Group_239" data-name="Group 239" transform="translate(883.9 -1286.937) rotate(3)">
    <path id="Path_234" data-name="Path 234" d="M-725.506,1463.487l-20.8,7.39-21.228-45.943c7.482-7.709,11.057-17.758,16.45-26.688.7-1.158,1.319-2.365,1.954-3.562a17.862,17.862,0,0,1,7.371-7.448c10.424-5.7,20.83-11.431,31.31-17.023a16.24,16.24,0,0,1,5.762-1.747,8.5,8.5,0,0,1,8.718,4.568,9.242,9.242,0,0,1-1.954,9.992,15.578,15.578,0,0,1-3.411,2.7q-11.605,6.787-23.294,13.431a2.172,2.172,0,0,0-1.279,2.188q.063,29.345.061,58.69C-725.846,1461.115-725.638,1462.2-725.506,1463.487Z" transform="translate(-5.204 -5.446)" fill="#91bf1c"/>
    <path id="Path_235" data-name="Path 235" d="M-751.063,1485.333l-29.187,16.123-26.9-58.242,31.306-11.514Zm-13.879,1.127a4.4,4.4,0,0,0-4.462-4.419,4.373,4.373,0,0,0-4.337,4.38,4.4,4.4,0,0,0,4.451,4.429A4.438,4.438,0,0,0-764.942,1486.46Z" transform="translate(0 -13.761)" fill="#91bf1c"/>
    <path id="Path_236" data-name="Path 236" d="M-649.678,1342.631h-62.93v1.747c0,7.462-.021,14.923.026,22.385a2.012,2.012,0,0,1-1.3,2.173c-1.362.616-2.647,1.4-4.182,2.234-.035-.747-.081-1.286-.081-1.825q-.007-15.183,0-30.367c0-7.376,4.649-12.021,12.021-12.022q24.885,0,49.771,0c7.519,0,12.084,4.568,12.084,12.078q0,23.48,0,46.96v1.821l-5.412.577Zm-31.6-6.381c2.391,0,4.784-.027,7.175.012,1.068.017,1.894-.456,1.752-1.453a2.228,2.228,0,0,0-1.637-1.4c-4.781-.115-9.565-.075-14.349-.064-1.018,0-1.753.445-1.692,1.573.056,1.042.764,1.353,1.732,1.343C-685.959,1336.233-683.619,1336.249-681.279,1336.25Zm-14.465.225.655-.016c.365-.573,1.086-1.21,1-1.7a2.046,2.046,0,0,0-1.477-1.284c-.4-.042-1.24.848-1.253,1.337C-696.834,1335.354-696.133,1335.919-695.744,1336.475Z" transform="translate(-11.692)" fill="#91bf1c"/>
    <path id="Path_237" data-name="Path 237" d="M-712.64,1459.6h2.236q24.325,0,48.651-.019a3.164,3.164,0,0,1,2.706,1.094,8.127,8.127,0,0,0,6.531,2.79c2.7-.03,5.4-.007,8.055-.007.823,5.491-3.985,11.184-9.645,11.6-2.335.171-4.69.09-7.036.091q-22.6.009-45.21,0c-7.072,0-11.779-4.656-11.788-11.742-.022-19.087,0-38.175-.029-57.263a1.972,1.972,0,0,1,1.181-2.085c1.391-.69,2.713-1.518,4.348-2.45Zm36.157,7.711a4.741,4.741,0,0,0-4.69-4.683,4.766,4.766,0,0,0-4.727,4.811,4.78,4.78,0,0,0,4.7,4.688A4.744,4.744,0,0,0-676.483,1467.31Z" transform="translate(-11.689 -9.808)" fill="#91bf1c"/>
    <path id="Path_238" data-name="Path 238" d="M-637.617,1450.574q-4.534,0-9.068,0a7.346,7.346,0,0,1-7.478-7.832c.222-4.353,3.088-7.443,7.55-7.436q9.066.013,18.132.256c4.472.116,7.131,3.223,7.117,8.095a7.044,7.044,0,0,1-7.182,7.1c-1.51.046-3.023-.036-4.534-.045s-3.025,0-4.536,0Z" transform="translate(-20.096 -14.235)" fill="#91bf1c"/>
    <path id="Path_239" data-name="Path 239" d="M-635.751,1431.621c-2.395,0-4.791.007-7.185,0-4.489-.015-7.752-2.909-7.857-6.958-.128-4.922,2.557-8.152,7.305-8.273,5.306-.135,10.624-.049,15.928.176,4.257.18,6.752,3.436,6.645,8.2a6.982,6.982,0,0,1-7.024,6.9c-2.6.063-5.208.012-7.812.012Z" transform="translate(-20.54 -11.741)" fill="#91bf1c"/>
    <path id="Path_240" data-name="Path 240" d="M-637.681,1454.412c2.189,0,4.38-.066,6.567.014a7.232,7.232,0,0,1,7.238,7.728,7.228,7.228,0,0,1-7.532,7.284q-6.175.014-12.349-.1c-4.691-.085-7.608-3.06-7.606-7.67,0-4.333,3.009-7.263,7.585-7.349,2.032-.039,4.064-.007,6.1-.007Z" transform="translate(-20.465 -16.73)" fill="#91bf1c"/>
    <path id="Path_241" data-name="Path 241" d="M-633.207,1398.63a31.224,31.224,0,0,1,4.519.036c3.983.586,6.164,3.772,5.8,8.218a6.8,6.8,0,0,1-7.079,6.278c-2.391.01-4.786-.065-7.177-.173-3.9-.175-6.5-3.264-6.406-7.551a6.727,6.727,0,0,1,6.747-6.913c1.2-.012,2.395,0,3.593,0Z" transform="translate(-21.492 -9.402)" fill="#91bf1c"/>
  </g>
</svg>
