<svg xmlns="http://www.w3.org/2000/svg" width="211.515" height="197.536" viewBox="0 0 211.515 197.536">
  <g id="Group_246" data-name="Group 246" transform="translate(1024.399 -2838.26)">
    <path id="Path_251" data-name="Path 251" d="M-852.77,3309.527q-.021-22.291-.037-44.582a9.7,9.7,0,0,1,.106-.982h39.059v2.059q0,20.687,0,41.374c0,.71.058,1.42.09,2.131Z" transform="translate(-111.514 -273.732)" fill="#91bf1c"/>
    <path id="Path_252" data-name="Path 252" d="M-704.667,3309.537c.028-3.089.078-6.177.081-9.266q.015-17.121,0-34.241v-2.051h39.138v45.559Z" transform="translate(-207.787 -273.742)" fill="#91bf1c"/>
    <path id="Path_253" data-name="Path 253" d="M-855.533,2888.331q.811,4.8,1.62,9.593,1.791,10.723,3.572,21.449c.176,1.061.5,2.073,1.736,2.1,1.2.029,1.619-.9,1.885-1.969,2.375-9.563,4.8-19.114,7.138-28.686.293-1.2.68-1.648,1.954-1.6,4.782.16,9.567.21,14.352.243a1.992,1.992,0,0,1,2.141,1.281,6.938,6.938,0,0,0,8.217,3.791,7.254,7.254,0,0,0,5.319-7.456,7.252,7.252,0,0,0-5.915-6.8,6.959,6.959,0,0,0-7.856,4.506,1.8,1.8,0,0,1-2.084,1.31c-5.366-.143-10.735-.176-16.1-.336a2.442,2.442,0,0,0-2.818,2.2c-1.7,7.041-3.48,14.061-5.234,21.088a4.162,4.162,0,0,1-.72,1.65q-.987-5.862-1.973-11.725-1.476-8.88-2.936-17.762a2.039,2.039,0,0,0-.2-.86c-.488-.638-1.021-1.666-1.585-1.7a2.46,2.46,0,0,0-1.794,1.448c-1.024,2.905-1.84,5.886-2.736,8.839a6.964,6.964,0,0,1-1.14,2.439q-.6-4.18-1.2-8.358a3.7,3.7,0,0,0-.257-1.386c-.35-.552-.851-1.284-1.374-1.366a2.1,2.1,0,0,0-1.694.881c-.992,1.6-1.727,3.375-2.712,4.985a2.4,2.4,0,0,1-1.675,1.062c-8.344.07-16.689.063-25.033.022a1.683,1.683,0,0,1-1.33-.725c-3.6-10.582-5.122-21.272.259-31.672,10.641-20.566,35.23-19.91,47.105-9.245a25.692,25.692,0,0,1,8.4,16,2.7,2.7,0,0,0,.5,1.336c.253-1.346.419-2.717.772-4.036,3.065-11.464,10.771-17.713,21.893-19.938,16.039-3.209,31.319,6.159,35.41,21.907,2.522,9.709.791,19.145-3.029,28.2-3.948,9.361-10.277,16.988-17.66,23.671-7.586,6.867-15.445,13.42-23.142,20.161a71.05,71.05,0,0,0-5.157,5.082c-4.413,4.744-8.045,9.961-9.156,17.127-2.453-12.222-11.014-19.2-19.192-26.455-7.3-6.477-14.774-12.757-21.9-19.429a61.515,61.515,0,0,1-12.474-16.655c-.266-.511-.485-1.048-.848-1.84h2.066c7.411,0,14.822-.05,22.232.03,2.249.024,4.256-.049,5.229-2.782.3,2.06.614,4.118.908,6.179.268,1.883.4,3.8.832,5.639a3.049,3.049,0,0,0,1.536,2.012c1.128.35,1.681-.673,2-1.737,1.161-3.91,2.357-7.81,3.54-11.713Z" transform="translate(-81.35)" fill="#91bf1c"/>
    <path id="Path_254" data-name="Path 254" d="M-972.172,3063.563c-2.9-1.006-4.91-3.141-6.893-5.352-7.085-7.9-14.22-15.759-21.308-23.658-3.449-3.843-3.371-7.6.151-11.333,1.645-1.745,3.28-2.264,5.319-.9a52.91,52.91,0,0,1,7.316,6c7.768,7.55,15.416,15.23,23.146,22.821a4.206,4.206,0,0,0,1.988.938c6.354,1.4,12.542,3.27,18.206,6.63,5.264,3.123,9.525,7.2,12.037,13,2.021,4.668,1.338,9.548,1.439,14.531h-30.079c.586-2.481-.983-4.033-2.519-5.54a2.955,2.955,0,0,0-1.92-.877,21.017,21.017,0,0,1-10.157-2.22c-6-2.891-12.018-5.762-17.987-8.728a19.286,19.286,0,0,1-9.282-10.038c-3.519-8.222-7.214-16.374-10.45-24.711-3.86-9.941-7.29-20.054-10.972-30.068-.533-1.448-.29-2.161,1.072-2.907,4.453-2.437,4.813-2.6,7.6,1.65,4.248,6.461,8.2,13.126,12.209,19.746a2.146,2.146,0,0,1-.063,1.847c-2.327,3.707-2.263,6.45.635,9.694q11.61,12.992,23.333,25.878A10.319,10.319,0,0,0-972.172,3063.563Z" transform="translate(0 -103.644)" fill="#91bf1c"/>
    <path id="Path_255" data-name="Path 255" d="M-658.7,3086.308h-29.724c-1.826-10.991,1.655-19.626,10.6-25.9,6.272-4.4,13.371-6.634,20.7-8.288a5.17,5.17,0,0,0,2.385-1.26c8.227-8.09,16.373-16.267,24.629-24.326a30.016,30.016,0,0,1,5.715-4.334c1.97-1.159,3.393-.687,5.019.99,3.607,3.721,3.765,7.464.333,11.294-7.631,8.52-15.266,17.036-23.014,25.445-1.433,1.555-3.4,2.6-4.988,3.778a10.135,10.135,0,0,0,6.56-3.372q11.973-13.134,23.817-26.389c2.689-3.019,2.714-5.683.64-9.3a2.441,2.441,0,0,1-.213-2c3.885-6.491,7.72-13.022,11.86-19.344,3.124-4.77,3.634-4.709,8.5-1.753.3.181.583.38,1.029.672-.258.825-.5,1.66-.779,2.477-5.785,16.634-11.861,33.143-18.728,49.362-3.474,8.2-8.591,14.247-16.708,17.672-5.652,2.384-11.193,5.046-16.878,7.34-1.667.672-3.655.6-5.5.7a5.864,5.864,0,0,0-5.172,5.312C-658.625,3085.441-658.663,3085.792-658.7,3086.308Z" transform="translate(-218.038 -103.678)" fill="#91bf1c"/>
    <path id="Path_256" data-name="Path 256" d="M-810.353,3253.069h-31.911v-4h31.911Z" transform="translate(-118.366 -264.154)" fill="#91bf1c"/>
    <path id="Path_257" data-name="Path 257" d="M-694.295,3253.079v-3.989h31.9v3.989Z" transform="translate(-214.527 -264.169)" fill="#91bf1c"/>
  </g>
</svg>
