<svg xmlns="http://www.w3.org/2000/svg" width="211.516" height="174.619" viewBox="0 0 211.516 174.619">
  <g id="Group_242" data-name="Group 242" transform="translate(1013.598 -1912.621)">
    <path id="Path_244" data-name="Path 244" d="M-1013.6,2070.775h10.854c-1.5-1.086-2.583-1.924-3.72-2.683-5.746-3.833-5.346-11.272-.475-15.422a50.226,50.226,0,0,1,13.776-8.04,135.313,135.313,0,0,1,16.987-5.987c8.644-2.25,16.114,1.432,20.37,9.308,2.816,5.21,6.149,6.526,11.771,4.61,5.052-1.723,9.466-4.645,13.922-7.481,2.7-1.72,5.347-3.538,8.086-5.2,4.178-2.535,8.851-1.453,11.324,2.523,2.327,3.741,1.037,8.581-3,11.121-5.423,3.414-10.782,6.939-16.316,10.164a39.031,39.031,0,0,1-18.022,5.642c-1.262.056-2.534-.107-4.026-.18.211,1.39.385,2.542.562,3.694q1.451,9.427,2.9,18.854c.357,2.317.372,2.192,2.817,2.4,7.508.629,15.036,1.143,22.5,2.129,5.622.742,9.75,3.79,10.873,9.729a21.457,21.457,0,0,1,.065,5.708q-1.743,20.695-3.6,41.38c-.223,2.522-.591,5.032-.775,7.556a10.924,10.924,0,0,1-12.286,9.572,10.763,10.763,0,0,1-9.245-11.4c.972-11.157,2.128-22.3,3.209-33.445.227-2.344.457-4.687.708-7.26-3.694-.344-7.262-.654-10.825-1.012-8.734-.88-17.484-1.641-26.19-2.738-3.98-.5-7.923-1.8-10.606-5.021a14.063,14.063,0,0,1-3.055-6.057c-1.406-7.462-2.414-15-3.564-22.507a4.234,4.234,0,0,1,.095-.866c1.86.73,3.614,1.425,5.373,2.107,2.435.944,4.9,1.66,7.565,1.149a10.172,10.172,0,0,0,8.063-9.039,9.279,9.279,0,0,0-5.55-9.713c-3.945-1.773-7.961-3.4-12-4.948-.78-.3-1.811.061-2.727.117l-.066.709c3.277,1.376,6.579,2.7,9.821,4.149a22.962,22.962,0,0,1,5.59,2.983,7.665,7.665,0,0,1,1.321,9.983,7.983,7.983,0,0,1-9.62,3.17c-4.813-1.891-9.548-3.982-14.315-5.99-.613-.258-1.217-.535-2.137-.942.2,1.051.308,1.8.488,2.538,2.317,9.451,4.55,18.925,7,28.342a18.872,18.872,0,0,0,16.158,13.619q16.543,1.667,33.091,3.281c.331.033.659.094,1.3.187-.3,2.853-.594,5.677-.9,8.5q-1.477,13.681-2.963,27.361c-.188,1.735-.448,3.465-.549,5.2-.073,1.265-.655,1.58-1.831,1.554-3.039-.067-6.081-.026-9.121-.026q-28.548,0-57.095-.007c-.671,0-1.342-.077-2.013-.119Z" transform="translate(0 -83.009)" fill="#91bf1c"/>
    <path id="Path_245" data-name="Path 245" d="M-591.432,2164.007c-.671.042-1.342.121-2.013.121q-32.855.008-65.709.038c-1.6,0-2.246-.352-2.422-2.056-1.318-12.764-2.74-25.517-4.121-38.275-.078-.716-.091-1.44-.144-2.336,2.566-.231,5.016-.43,7.461-.677q12.933-1.3,25.863-2.639c9.469-.983,15.307-6.291,17.663-15.348,2.421-9.308,4.562-18.69,6.819-28.041a9.846,9.846,0,0,0,.1-1.152c-2,.876-3.8,1.691-5.619,2.451-3.579,1.5-7.137,3.052-10.765,4.418a7.973,7.973,0,0,1-10.3-4.541,7.9,7.9,0,0,1,4.179-10.152c4.049-1.821,8.17-3.482,12.258-5.218.305-.129.6-.293.894-.441q.029-.265.058-.53c-.881-.116-1.889-.569-2.621-.291-3.99,1.518-7.956,3.12-11.846,4.88-3.593,1.627-5.891,4.41-5.914,8.5a10.239,10.239,0,0,0,5.58,9.564c3.215,1.737,6.565,1.031,9.807-.211,1.829-.7,3.64-1.448,5.764-2.3-.051.8-.045,1.379-.129,1.94-.979,6.511-1.979,13.019-2.959,19.53-1.177,7.812-5,11.486-13.985,12.968-8.7,1.435-17.555,1.927-26.345,2.813-3.522.355-7.051.655-10.827,1,.335,3.284.673,6.45.979,9.618,1,10.42,2.063,20.835,2.964,31.264a10.768,10.768,0,0,1-9.1,11.214c-6.931.863-11.941-4.281-12.4-9.225-.78-8.406-1.6-16.808-2.358-25.216-.773-8.633-1.495-17.271-2.217-25.908-.39-4.665,1-8.788,5.028-11.238a21.6,21.6,0,0,1,8.392-2.736c6.861-.845,13.779-1.25,20.68-1.737,1.364-.1,2.033-.31,2.254-1.9.968-6.965,2.123-13.9,3.2-20.854.1-.65.153-1.308.246-2.116-1.708,0-3.259.063-4.8-.01-7.612-.365-14.223-3.6-20.578-7.418-4.529-2.717-8.922-5.664-13.334-8.572a7.814,7.814,0,0,1-3.46-8.645,8.039,8.039,0,0,1,6.919-6.043,8.48,8.48,0,0,1,5.732,1.588c4.408,2.807,8.743,5.74,13.258,8.364a53.171,53.171,0,0,0,9.13,4.279c4.847,1.69,8.316.142,10.7-4.376,4.875-9.226,13.221-12.429,23.076-9.175,6.705,2.214,13.224,5.05,19.691,7.913a26.388,26.388,0,0,1,10.066,7.183c3.658,4.478,2.965,10.146-1.67,13.589a28.276,28.276,0,0,0-3.536,2.875h10.4Z" transform="translate(-210.65 -82.982)" fill="#91bf1c"/>
    <path id="Path_246" data-name="Path 246" d="M-938.927,1912.637a20.67,20.67,0,0,1,20.644,20.573,20.7,20.7,0,0,1-20.57,20.662,20.757,20.757,0,0,1-20.671-20.589A20.715,20.715,0,0,1-938.927,1912.637Z" transform="translate(-35.804 -0.011)" fill="#91bf1c"/>
    <path id="Path_247" data-name="Path 247" d="M-542.878,1912.623a20.721,20.721,0,0,1,20.39,21.02,20.772,20.772,0,0,1-20.866,20.219,20.683,20.683,0,0,1-20.365-21.034A20.7,20.7,0,0,1-542.878,1912.623Z" transform="translate(-297.87)" fill="#91bf1c"/>
  </g>
</svg>
