<svg xmlns="http://www.w3.org/2000/svg" width="198.115" height="198.032" viewBox="0 0 198.115 198.032">
  <path id="Path_250" data-name="Path 250" d="M-854.938,1889.063c4.557.781,9.128,1.489,13.665,2.369a3.778,3.778,0,0,1,3.024,5.363c-.727,1.947-2.22,2.739-4.462,2.4-4.894-.734-9.786-1.49-14.689-2.163-1.812-.248-3.227-.881-3.744-2.778-.523-1.916.136-3.5,1.949-4.8a3.348,3.348,0,0,0,.389-.389Zm-107.948,99.823c1.726,2.355,3.2,3.084,5.078,2.516,2.018-.609,2.786-2.048,2.93-5.08q.243-5.114.681-10.219c.227-2.659-.984-4.425-3.389-4.693-2.573-.286-4.194,1.095-4.524,3.84-.252,2.1-.518,4.189-.777,6.284Zm43.261-24.878q0,29.886,0,59.773c0,2.974.394,3.358,3.32,3.359q17.99.008,35.981.008c9.994,0,19.989.01,29.984-.04.633,0,1.668-.336,1.825-.767.654-1.794,1.042-3.685,1.529-5.542a.963.963,0,0,0-.329-.138c-1.418-.021-2.837-.018-4.255-.043-2.819-.05-4.008-1.2-4.024-4.015q-.041-7.254.013-14.508c.019-2.874,1.146-4.013,3.968-4.028q7.254-.04,14.509-.007c2.842.012,3.917,1.118,3.955,4.016.024,1.886,0,3.773,0,5.741l4.8-1.243v-44.813h-91.282Zm86.475,23.016c-.038,2.471-1.233,3.713-3.688,3.734q-7.544.065-15.088,0a3.326,3.326,0,0,1-3.65-3.607q-.081-7.64-.006-15.281c.022-2.438,1.3-3.711,3.723-3.734q7.447-.07,14.895-.008c2.583.021,3.781,1.247,3.819,3.809.038,2.514.009,5.03.009,7.544S-833.111,1984.509-833.15,1987.023Zm-52-15.084c.029-2.484,1.191-3.776,3.625-3.806q7.543-.091,15.086,0c2.543.031,3.718,1.317,3.731,3.914q.037,7.349,0,14.7c-.018,2.813-1.2,3.993-4.029,4.014q-7.252.052-14.506,0c-2.674-.016-3.866-1.23-3.9-3.931-.033-2.514-.007-5.029-.007-7.544C-885.159,1976.839-885.181,1974.389-885.153,1971.939Zm-7.2,15.188c-.046,2.333-1.273,3.6-3.6,3.627q-7.639.074-15.278,0a3.269,3.269,0,0,1-3.544-3.508q-.094-7.832.005-15.665a3.221,3.221,0,0,1,3.421-3.432c5.221-.072,10.444-.079,15.665.009,2.114.036,3.277,1.353,3.325,3.5.058,2.642.014,5.286.014,7.929C-892.338,1982.1-892.3,1984.614-892.35,1987.127Zm-.005,29.8c-.048,2.494-1.224,3.657-3.713,3.672q-7.446.047-14.891.012c-2.562-.011-3.791-1.2-3.818-3.806q-.077-7.542,0-15.084c.021-2.447,1.259-3.653,3.75-3.672q7.446-.057,14.892,0c2.616.02,3.76,1.188,3.794,3.793.033,2.514.007,5.028.007,7.542h-.007C-892.344,2011.9-892.306,2014.416-892.355,2016.93Zm29.641-.015c-.041,2.427-1.3,3.683-3.729,3.7q-7.543.045-15.085,0c-2.359-.016-3.6-1.239-3.618-3.585q-.057-7.735,0-15.471a3.185,3.185,0,0,1,3.5-3.495q7.735-.075,15.471.005c2.192.025,3.409,1.334,3.454,3.572.051,2.578.012,5.157.012,7.735C-862.7,2011.886-862.673,2014.4-862.714,2016.914Zm-73.572,36.151c24.249,26.712,54.281,38.469,90.166,32.515,49.362-8.189,88.668-56.171,80.194-114.118a3.775,3.775,0,0,0-4.5-3.432c-2.293.326-3.54,1.93-3.339,4.375.19,2.312.46,4.618.647,6.931,1.595,19.722-2.022,38.438-12.524,55.244-20.228,32.372-49.614,48.007-87.772,43.762-30.451-3.387-52.98-20.02-68.175-46.57-.232-.405-.383-.857-.733-1.654,2.775,1.448,5.153,2.716,7.556,3.933s4.421.656,5.606-1.516c1.154-2.116.474-4.225-1.877-5.47q-8.708-4.614-17.464-9.139c-3.047-1.565-5.675-.186-6.28,3.211q-1.679,9.42-3.32,18.846c-.467,2.664.647,4.491,3.009,4.972,2.5.51,4.3-.768,4.819-3.47.394-2.063.725-4.137,1.029-5.892C-944.956,2041.437-941.138,2047.72-936.286,2053.065Zm36.638-103.987c-2.439.085-4.757-.168-6.766-1.738-2.9-2.262-3.358-5.449-3.182-8.988-2.836,0-5.469-.107-8.082.074-.666.046-1.8.994-1.816,1.554-.143,4.935-.083,9.877-.083,14.906h91.311c0-5,.061-9.878-.079-14.755a2.46,2.46,0,0,0-1.705-1.677c-2.676-.189-5.374-.08-7.552-.08-.827,2.64-1.242,5.145-2.374,7.266-1.244,2.331-3.66,3.315-6.35,3.426-2.359.1-4.62-.085-6.631-1.541-3.119-2.258-3.579-5.58-3.519-9.127h-34.854C-892.3,1946.1-894.546,1948.9-899.648,1949.078Zm91.854,81.444a17.309,17.309,0,0,0-17.02-17.427,17.256,17.256,0,0,0-17.35,17.46,17.291,17.291,0,0,0,17,17.24A17.322,17.322,0,0,0-807.794,2030.522Zm-17.717,5.751c-.874.845-1.547,1.894-2.377,2.789a3.075,3.075,0,0,1-4.619.322,3.165,3.165,0,0,1-.4-4.629,2.457,2.457,0,0,1,.37-.444c3.794-3.165,4.969-7.25,4.25-12.013a6.454,6.454,0,0,1,0-1.158c.07-2.162,1.31-3.563,3.194-3.618,1.957-.057,3.358,1.4,3.414,3.613.039,1.544.007,3.089.007,5.4C-820.705,2030.092-822.518,2033.379-825.511,2036.273Zm-129.866-72.662a4.05,4.05,0,0,0,4.483-2.82c1.8-4.531,3.589-9.069,5.473-13.567,1.079-2.575.543-4.591-1.721-5.668-2.232-1.062-4.347-.29-5.465,2.3-1.96,4.533-3.755,9.139-5.6,13.723a11.6,11.6,0,0,0-.43,1.543A4.153,4.153,0,0,0-955.377,1963.611Zm144.887-59.228c-4.827-2.694-9.719-5.282-14.681-7.717-2.081-1.021-4.142.06-5.031,2.2a3.679,3.679,0,0,0,1.889,5.017q6.833,3.585,13.669,7.166c2.812,1.479,6-.484,5.94-4.4C-809.056,1906.185-809.56,1904.9-810.49,1904.383Zm-118.145,11.595a3.348,3.348,0,0,0-4.091.757c-3.656,4.07-7.3,8.154-10.808,12.352a3.829,3.829,0,0,0,.828,5.629c1.743,1.3,3.891.927,5.481-.9,3.3-3.788,6.636-7.54,9.9-11.353a12.634,12.634,0,0,0,1.311-2.184C-926.138,1917.959-927.052,1916.693-928.635,1915.977Zm39.156-23.737c-2.585.568-3.774,2.518-3.239,4.841.553,2.4,2.474,3.378,5.232,2.833q7.1-1.4,14.235-2.64c2.614-.453,3.938-1.978,3.659-4.484-.253-2.272-1.831-3.512-4.383-3.714C-879.146,1890.123-884.329,1891.108-889.479,1892.24ZM-919.6,1912.9c1.246,1.016,2.76.686,4.163-.125q6.517-3.767,13.082-7.451c2.177-1.223,2.9-3.23,1.85-5.359a3.6,3.6,0,0,0-5.174-1.812q-7.137,3.839-14.071,8.049c-.965.586-1.481,1.91-2.415,3.181C-921.193,1910.761-920.6,1912.084-919.6,1912.9Zm133.862,13.847c-3.919-4.258-7.827-8.532-11.905-12.634-1.452-1.46-3.724-1-5.166.6a3.589,3.589,0,0,0-.167,5.065c3.666,3.972,7.383,7.9,11.109,11.813a3.388,3.388,0,0,0,4.07.825,4.293,4.293,0,0,0,2.72-3.988A4.541,4.541,0,0,0-785.735,1926.75Zm15.7,28.712c-2.121-5.242-4.466-10.4-6.906-15.5-.937-1.96-3.271-2.367-5.2-1.313a3.707,3.707,0,0,0-1.681,5.1c2.094,4.7,4.2,9.4,6.281,14.1a3.637,3.637,0,0,0,3.563,2.462C-771.2,1960.3-769.046,1957.9-770.034,1955.461Zm-134.576-13.49c-.014,1.429.615,2.162,2.094,2.126,1.288-.031,2.579-.043,3.866,0,1.586.058,2.207-.74,2.2-2.238-.015-2.577.012-5.155,0-7.732-.024-6.529.613-5.62-6.079-5.7-1.491-.019-2.093.719-2.079,2.138.018,1.868,0,3.737,0,5.605C-904.605,1938.105-904.592,1940.039-904.61,1941.971Zm61.326-7.878c-.03-6.4.8-5.624-6.089-5.657-1.351-.006-2.046.606-2.045,1.974q0,5.9.005,11.8a1.694,1.694,0,0,0,1.934,1.881c1.354,0,2.708-.024,4.061.01,1.584.039,2.186-.746,2.141-2.269-.053-1.8-.012-3.61-.01-5.415C-843.283,1935.64-843.28,1934.867-843.284,1934.093ZM-848.807,2014c1.994,0,3.946.357,5.667-.118a5.057,5.057,0,0,0,3.2-2.78c.53-1.954.145-4.156.145-6.343h-9.016Zm.017-30.026h8.921v-9.086h-8.921Zm-20.681-9.075H-878.4v9.16h8.931Zm-38.543,9.1h8.92v-9.164h-8.92Zm8.914,20.817h-8.872v9.138h8.872Zm29.609-.029h-8.926v9.138h8.926Z" transform="translate(962.886 -1889.063)" fill="#91bf1c"/>
</svg>
